<?xml version="1.0" standalone="no"?>
<!DOCTYPE svg PUBLIC "-//W3C//DTD SVG 20010904//EN"
 "http://www.w3.org/TR/2001/REC-SVG-20010904/DTD/svg10.dtd">
<svg version="1.0" xmlns="http://www.w3.org/2000/svg"
 width="1024.000000pt" height="1024.000000pt" viewBox="0 0 1024.000000 1024.000000"
 preserveAspectRatio="xMidYMid meet">
<metadata>
Created by potrace 1.14, written by Peter Selinger 2001-2017
</metadata>
<g transform="translate(0.000000,1024.000000) scale(0.100000,-0.100000)"
fill="#000000" stroke="none">
<path d="M1649 10236 c-2 -2 -30 -6 -61 -10 -385 -40 -772 -229 -1059 -517
-235 -235 -396 -519 -474 -834 -56 -229 -53 4 -51 -3785 1 -1922 5 -3506 8
-3520 3 -14 11 -52 17 -85 6 -33 13 -71 16 -84 10 -52 59 -207 85 -271 45
-108 60 -140 123 -245 210 -352 519 -613 904 -766 83 -33 282 -87 349 -95 23
-3 53 -8 65 -12 13 -4 1597 -8 3519 -9 3760 -2 3550 -5 3768 47 243 58 469
166 677 323 96 74 254 229 315 312 25 33 48 62 51 65 25 19 179 293 179 318 0
6 4 12 9 12 5 0 11 10 14 23 3 12 21 67 41 122 31 87 54 181 82 330 5 22 9
1610 10 3530 3 3623 4 3536 -36 3730 -80 396 -328 789 -661 1048 -82 63 -243
164 -319 199 -157 73 -267 109 -440 144 -156 32 -164 32 -3661 33 -1906 0
-3468 -1 -3470 -3z"/>
</g>
</svg>
